# xmcd CD database file
#
# Track frame offsets:
#	150
#	38590
#	72317
#	105786
#	122849
#	134150
#	163616
#	181505
#	207772
#	236088
#	260789
#
# Disc length: 3888 seconds
#
# Revision: 0
# Processed by: cddbd v1.5.1PL2 Copyright (c) Steve Scherf et al.
# Submitted via: CDex 1.51
#
DISCID=960f2e0b
DTITLE=Krzysztof Kobylinski - Piano solo (beta 3.0)
DYEAR=2006
DGENRE=Jazz
TTITLE0=Spain
TTITLE1=Wiosna szesnastolatka
TTITLE2=F-dur impro
TTITLE3=Mama
TTITLE4=Polonez
TTITLE5=Rozowy sok
TTITLE6=Over the rainbow
TTITLE7=Grazyna
TTITLE8=Etiuda 1245
TTITLE9=Moje urodziny
TTITLE10=Zakopane
EXTD=YEAR: 2006
EXTT0=
EXTT1=
EXTT2=
EXTT3=
EXTT4=
EXTT5=
EXTT6=
EXTT7=
EXTT8=
EXTT9=
EXTT10=
PLAYORDER=
